<mxfile host="app.diagrams.net" agent="Mozilla/5.0 (Macintosh; Intel Mac OS X 10_15_7) AppleWebKit/537.36 (KHTML, like Gecko) Chrome/138.0.0.0 Safari/537.36" version="28.0.6">
  <diagram name="第 1 页" id="RAERaMDtoL3DC9eTLDLf">
    <mxGraphModel dx="811" dy="693" grid="1" gridSize="10" guides="1" tooltips="1" connect="1" arrows="1" fold="1" page="1" pageScale="1" pageWidth="827" pageHeight="1169" math="0" shadow="0">
      <root>
        <mxCell id="0" />
        <mxCell id="1" parent="0" />
        <mxCell id="lzarEEwiP4umfljfq3BW-16" style="rounded=0;orthogonalLoop=1;jettySize=auto;html=1;" edge="1" parent="1" source="lzarEEwiP4umfljfq3BW-7" target="lzarEEwiP4umfljfq3BW-15">
          <mxGeometry relative="1" as="geometry" />
        </mxCell>
        <mxCell id="lzarEEwiP4umfljfq3BW-7" value="" style="rounded=0;whiteSpace=wrap;html=1;" vertex="1" parent="1">
          <mxGeometry x="60" y="150" width="350" height="45" as="geometry" />
        </mxCell>
        <mxCell id="lzarEEwiP4umfljfq3BW-1" value="9906" style="rounded=1;whiteSpace=wrap;html=1;glass=0;fontFamily=Comic Sans MS;shadow=0;sketch=1;curveFitting=1;jiggle=2;" vertex="1" parent="1">
          <mxGeometry x="70" y="160" width="50" height="25" as="geometry" />
        </mxCell>
        <mxCell id="lzarEEwiP4umfljfq3BW-2" value="11" style="rounded=1;whiteSpace=wrap;html=1;sketch=1;curveFitting=1;jiggle=2;glass=0;fontFamily=Comic Sans MS;" vertex="1" parent="1">
          <mxGeometry x="125" y="160" width="50" height="25" as="geometry" />
        </mxCell>
        <mxCell id="lzarEEwiP4umfljfq3BW-3" value="358" style="rounded=1;whiteSpace=wrap;html=1;sketch=1;curveFitting=1;jiggle=2;glass=0;fontFamily=Comic Sans MS;" vertex="1" parent="1">
          <mxGeometry x="180" y="160" width="50" height="25" as="geometry" />
        </mxCell>
        <mxCell id="lzarEEwiP4umfljfq3BW-4" value="2846" style="rounded=1;whiteSpace=wrap;html=1;sketch=1;curveFitting=1;jiggle=2;glass=0;fontFamily=Comic Sans MS;" vertex="1" parent="1">
          <mxGeometry x="235" y="160" width="50" height="25" as="geometry" />
        </mxCell>
        <mxCell id="lzarEEwiP4umfljfq3BW-5" value="264" style="rounded=1;whiteSpace=wrap;html=1;sketch=1;curveFitting=1;jiggle=2;glass=0;fontFamily=Comic Sans MS;" vertex="1" parent="1">
          <mxGeometry x="290" y="160" width="50" height="25" as="geometry" />
        </mxCell>
        <mxCell id="lzarEEwiP4umfljfq3BW-8" value="&quot;Hello&quot;" style="text;html=1;align=center;verticalAlign=middle;whiteSpace=wrap;rounded=0;fontFamily=Comic Sans MS;" vertex="1" parent="1">
          <mxGeometry x="66.5" y="200" width="60" height="25" as="geometry" />
        </mxCell>
        <mxCell id="lzarEEwiP4umfljfq3BW-9" value="&quot;,&quot;" style="text;html=1;align=center;verticalAlign=middle;whiteSpace=wrap;rounded=0;fontFamily=Comic Sans MS;" vertex="1" parent="1">
          <mxGeometry x="123.25" y="200" width="53.5" height="25" as="geometry" />
        </mxCell>
        <mxCell id="lzarEEwiP4umfljfq3BW-10" value="&quot; I&quot;" style="text;html=1;align=center;verticalAlign=middle;whiteSpace=wrap;rounded=0;fontFamily=Comic Sans MS;" vertex="1" parent="1">
          <mxGeometry x="185.75" y="200" width="38.5" height="25" as="geometry" />
        </mxCell>
        <mxCell id="lzarEEwiP4umfljfq3BW-11" value="&quot;&#39;m&quot;" style="text;html=1;align=center;verticalAlign=middle;whiteSpace=wrap;rounded=0;fontFamily=Comic Sans MS;" vertex="1" parent="1">
          <mxGeometry x="240.75" y="200" width="38.5" height="25" as="geometry" />
        </mxCell>
        <mxCell id="lzarEEwiP4umfljfq3BW-12" value="4221" style="rounded=1;whiteSpace=wrap;html=1;sketch=1;curveFitting=1;jiggle=2;glass=0;fontFamily=Comic Sans MS;" vertex="1" parent="1">
          <mxGeometry x="345" y="160" width="50" height="25" as="geometry" />
        </mxCell>
        <mxCell id="lzarEEwiP4umfljfq3BW-13" value="&quot; a&quot;" style="text;html=1;align=center;verticalAlign=middle;whiteSpace=wrap;rounded=0;fontFamily=Comic Sans MS;" vertex="1" parent="1">
          <mxGeometry x="295.75" y="200" width="38.5" height="25" as="geometry" />
        </mxCell>
        <mxCell id="lzarEEwiP4umfljfq3BW-14" value="&quot; language&quot;" style="text;html=1;align=center;verticalAlign=middle;whiteSpace=wrap;rounded=0;fontFamily=Comic Sans MS;" vertex="1" parent="1">
          <mxGeometry x="335.37" y="200" width="69.25" height="25" as="geometry" />
        </mxCell>
        <mxCell id="lzarEEwiP4umfljfq3BW-15" value="神经网络" style="shape=cube;whiteSpace=wrap;html=1;boundedLbl=1;backgroundOutline=1;darkOpacity=0.05;darkOpacity2=0.1;size=9;fontFamily=Comic Sans MS;sketch=1;curveFitting=1;jiggle=2;" vertex="1" parent="1">
          <mxGeometry x="450" y="132.5" width="100" height="80" as="geometry" />
        </mxCell>
        <mxCell id="lzarEEwiP4umfljfq3BW-17" value="" style="rounded=1;whiteSpace=wrap;html=1;sketch=1;curveFitting=1;jiggle=2;" vertex="1" parent="1">
          <mxGeometry x="600" y="49.38" width="10" height="246.25" as="geometry" />
        </mxCell>
        <mxCell id="lzarEEwiP4umfljfq3BW-18" style="rounded=0;orthogonalLoop=1;jettySize=auto;html=1;exitX=0.993;exitY=0.5;exitDx=0;exitDy=0;exitPerimeter=0;entryX=0;entryY=0.5;entryDx=0;entryDy=0;" edge="1" parent="1" source="lzarEEwiP4umfljfq3BW-15" target="lzarEEwiP4umfljfq3BW-17">
          <mxGeometry relative="1" as="geometry" />
        </mxCell>
        <mxCell id="lzarEEwiP4umfljfq3BW-19" value="2590 model" style="text;html=1;align=center;verticalAlign=middle;whiteSpace=wrap;rounded=0;" vertex="1" parent="1">
          <mxGeometry x="670" y="40" width="60" height="30" as="geometry" />
        </mxCell>
        <mxCell id="lzarEEwiP4umfljfq3BW-20" value="3129 transation" style="text;html=1;align=center;verticalAlign=middle;whiteSpace=wrap;rounded=0;" vertex="1" parent="1">
          <mxGeometry x="700" y="90" width="60" height="30" as="geometry" />
        </mxCell>
        <mxCell id="lzarEEwiP4umfljfq3BW-21" value="5635 rapper" style="text;html=1;align=center;verticalAlign=middle;whiteSpace=wrap;rounded=0;" vertex="1" parent="1">
          <mxGeometry x="700" y="155" width="60" height="30" as="geometry" />
        </mxCell>
      </root>
    </mxGraphModel>
  </diagram>
</mxfile>
